<svg width="26" height="27" viewBox="0 0 26 27" fill="none" xmlns="http://www.w3.org/2000/svg">
<g clip-path="url(#clip0_203_13)">
<path fill-rule="evenodd" clip-rule="evenodd" d="M0 2.9375C0 2.72201 0.0856024 2.51535 0.237976 2.36298C0.390349 2.2106 0.597012 2.125 0.8125 2.125H3.25C3.43124 2.12505 3.60726 2.18569 3.75006 2.29729C3.89287 2.40889 3.99427 2.56502 4.03812 2.74087L4.69625 5.375H23.5625C23.6827 5.37507 23.8013 5.4018 23.9099 5.45325C24.0185 5.5047 24.1143 5.57959 24.1905 5.67254C24.2666 5.76548 24.3212 5.87416 24.3503 5.99075C24.3794 6.10733 24.3823 6.22892 24.3587 6.34675L22.7337 14.4717C22.6982 14.6489 22.6046 14.8092 22.4677 14.9272C22.3309 15.0452 22.1586 15.1143 21.9781 15.1234L6.708 15.8904L7.17437 18.375H21.125C21.3405 18.375 21.5472 18.4606 21.6995 18.613C21.8519 18.7653 21.9375 18.972 21.9375 19.1875C21.9375 19.403 21.8519 19.6097 21.6995 19.762C21.5472 19.9144 21.3405 20 21.125 20H6.5C6.31058 19.9998 6.12717 19.9335 5.98148 19.8124C5.83579 19.6913 5.73698 19.5232 5.70213 19.337L3.26625 6.36138L2.61625 3.75H0.8125C0.597012 3.75 0.390349 3.6644 0.237976 3.51202C0.0856024 3.35965 0 3.15299 0 2.9375ZM5.04075 7L6.40575 14.2784L21.2648 13.5325L22.5713 7H5.04075ZM8.125 20C7.26305 20 6.4364 20.3424 5.8269 20.9519C5.21741 21.5614 4.875 22.388 4.875 23.25C4.875 24.112 5.21741 24.9386 5.8269 25.5481C6.4364 26.1576 7.26305 26.5 8.125 26.5C8.98695 26.5 9.8136 26.1576 10.4231 25.5481C11.0326 24.9386 11.375 24.112 11.375 23.25C11.375 22.388 11.0326 21.5614 10.4231 20.9519C9.8136 20.3424 8.98695 20 8.125 20ZM19.5 20C18.638 20 17.8114 20.3424 17.2019 20.9519C16.5924 21.5614 16.25 22.388 16.25 23.25C16.25 24.112 16.5924 24.9386 17.2019 25.5481C17.8114 26.1576 18.638 26.5 19.5 26.5C20.362 26.5 21.1886 26.1576 21.7981 25.5481C22.4076 24.9386 22.75 24.112 22.75 23.25C22.75 22.388 22.4076 21.5614 21.7981 20.9519C21.1886 20.3424 20.362 20 19.5 20ZM8.125 21.625C7.69402 21.625 7.2807 21.7962 6.97595 22.101C6.67121 22.4057 6.5 22.819 6.5 23.25C6.5 23.681 6.67121 24.0943 6.97595 24.399C7.2807 24.7038 7.69402 24.875 8.125 24.875C8.55598 24.875 8.9693 24.7038 9.27405 24.399C9.57879 24.0943 9.75 23.681 9.75 23.25C9.75 22.819 9.57879 22.4057 9.27405 22.101C8.9693 21.7962 8.55598 21.625 8.125 21.625ZM19.5 21.625C19.069 21.625 18.6557 21.7962 18.351 22.101C18.0462 22.4057 17.875 22.819 17.875 23.25C17.875 23.681 18.0462 24.0943 18.351 24.399C18.6557 24.7038 19.069 24.875 19.5 24.875C19.931 24.875 20.3443 24.7038 20.649 24.399C20.9538 24.0943 21.125 23.681 21.125 23.25C21.125 22.819 20.9538 22.4057 20.649 22.101C20.3443 21.7962 19.931 21.625 19.5 21.625Z" fill="#272727"/>
</g>
<defs>
<clipPath id="clip0_203_13">
<rect width="26" height="26" fill="white" transform="translate(0 0.5)"/>
</clipPath>
</defs>
</svg>
